<svg xmlns="http://www.w3.org/2000/svg" viewBox="0 0 48 48" fill="none">
  <!-- Outer arc - speedometer gauge -->
  <path d="M8 32 A20 20 0 1 1 40 32" stroke="currentColor" stroke-width="3" stroke-linecap="round" fill="none" opacity="0.3"/>

  <!-- Speed gradient arc (represents high speed) -->
  <defs>
    <linearGradient id="speedGradient" x1="0%" y1="0%" x2="100%" y2="0%">
      <stop offset="0%" stop-color="#3b82f6"/>
      <stop offset="50%" stop-color="#8b5cf6"/>
      <stop offset="100%" stop-color="#06b6d4"/>
    </linearGradient>
  </defs>
  <path d="M8 32 A20 20 0 0 1 24 12" stroke="url(#speedGradient)" stroke-width="3" stroke-linecap="round" fill="none"/>

  <!-- Speed needle pointing to high speed position -->
  <g transform="rotate(-30 24 32)">
    <line x1="24" y1="32" x2="24" y2="16" stroke="currentColor" stroke-width="2.5" stroke-linecap="round"/>
    <circle cx="24" cy="32" r="3" fill="currentColor"/>
  </g>

  <!-- Network signal waves (right side) -->
  <path d="M34 22 A6 6 0 0 1 34 28" stroke="currentColor" stroke-width="2" stroke-linecap="round" fill="none" opacity="0.6"/>
  <path d="M38 19 A10 10 0 0 1 38 31" stroke="currentColor" stroke-width="2" stroke-linecap="round" fill="none" opacity="0.4"/>

  <!-- Data transfer arrows -->
  <path d="M16 38 L20 42 L16 46" stroke="currentColor" stroke-width="2" stroke-linecap="round" stroke-linejoin="round" fill="none" opacity="0.7"/>
  <path d="M32 46 L28 42 L32 38" stroke="currentColor" stroke-width="2" stroke-linecap="round" stroke-linejoin="round" fill="none" opacity="0.7"/>
  <line x1="20" y1="42" x2="28" y2="42" stroke="currentColor" stroke-width="2" stroke-linecap="round" opacity="0.7"/>
</svg>
